<?xml version="1.0" encoding="utf-8"?>
<!-- Generator: Adobe Illustrator 19.1.0, SVG Export Plug-In . SVG Version: 6.00 Build 0)  -->
<!DOCTYPE svg PUBLIC "-//W3C//DTD SVG 1.1//EN" "http://www.w3.org/Graphics/SVG/1.1/DTD/svg11.dtd">
<svg version="1.1" id="Layer_1" xmlns="http://www.w3.org/2000/svg" xmlns:xlink="http://www.w3.org/1999/xlink" x="0px" y="0px"
	 viewBox="-371 501 24 24" style="enable-background:new -371 501 24 24;" xml:space="preserve">
<style type="text/css">
	.st0{fill:#3B649D;}
	.st1{fill:#FFFFFF;}
</style>
<g id="Layer_2_1_">
	<path class="st0" d="M-349.9,525h-18.2c-1.6,0-2.9-1.3-2.9-2.9v-18.2c0-1.6,1.3-2.9,2.9-2.9h18.2c1.6,0,2.9,1.3,2.9,2.9v18.2
		C-347,523.7-348.3,525-349.9,525z"/>
</g>
<g>
	<g>
		<path class="st1" d="M-353.5,516.7l-1.6,3.8h1.7l4.5-10.4h-1.9l-1.1,2.7c-0.4,1-0.6,1.7-0.8,2h0c-0.2-0.5-0.4-1.2-0.8-2.2
			l-1.1-2.5h-1.8L-353.5,516.7z M-362.4,508.9h1c0.4,0,0.7,0,0.9,0c0.2,0,0.5,0.1,0.6,0.1c0.3,0.1,0.6,0.3,0.7,0.5
			c0.1,0.2,0.2,0.5,0.2,0.7c0,0.2,0,0.4-0.1,0.6c-0.1,0.2-0.2,0.4-0.4,0.5c-0.2,0.1-0.5,0.2-0.8,0.3c-0.3,0.1-0.7,0.1-1.2,0.1
			c-0.2,0-0.3,0-0.5,0c-0.2,0-0.3,0-0.4,0V508.9z M-359.7,513.2c0.5-0.1,1-0.3,1.4-0.6c0.4-0.3,0.7-0.6,0.8-1
			c0.2-0.4,0.3-0.8,0.3-1.3c0-0.7-0.2-1.3-0.5-1.7c-0.4-0.4-0.9-0.8-1.5-1c-0.3-0.1-0.6-0.1-0.9-0.2c-0.4,0-0.8-0.1-1.2-0.1h-2.8
			v9.7h1.8v-3.8c0.1,0,0.3,0,0.4,0c0.2,0,0.3,0,0.5,0C-360.8,513.4-360.2,513.3-359.7,513.2z M-366.5,517.1v-9.7h-1.8v9.7H-366.5z"
			/>
	</g>
</g>
</svg>
